<svg width="185" height="48" viewBox="0 0 185 48" fill="none" xmlns="http://www.w3.org/2000/svg">
<path d="M0 11.1304C0 4.98327 4.98326 0 11.1304 0H47.3043C53.4515 0 58.4348 4.98327 58.4348 11.1304V36.8696C58.4348 43.0167 53.4515 48 47.3043 48H11.1304C4.98327 48 0 43.0167 0 36.8696V11.1304Z" fill="#FEB344"/>
<path d="M90.034 32.0682C89.534 32.0682 89.086 31.987 88.69 31.8247C88.2939 31.6624 87.9758 31.4222 87.7355 31.104C87.5018 30.7859 87.3784 30.4028 87.3654 29.9548H89.138C89.1639 30.208 89.2516 30.4028 89.4009 30.5391C89.5503 30.669 89.745 30.7339 89.9853 30.7339C90.232 30.7339 90.4268 30.6787 90.5696 30.5684C90.7125 30.4515 90.7839 30.2924 90.7839 30.0911C90.7839 29.9223 90.7254 29.7827 90.6086 29.6724C90.4982 29.562 90.3586 29.4711 90.1898 29.3997C90.0275 29.3283 89.7937 29.2471 89.4886 29.1562C89.0471 29.0198 88.6867 28.8835 88.4075 28.7471C88.1283 28.6108 87.8881 28.4095 87.6868 28.1433C87.4856 27.8771 87.3849 27.5298 87.3849 27.1012C87.3849 26.4649 87.6154 25.9683 88.0764 25.6111C88.5374 25.2476 89.138 25.0658 89.8781 25.0658C90.6313 25.0658 91.2384 25.2476 91.6994 25.6111C92.1603 25.9683 92.4071 26.4682 92.4395 27.111H90.6378C90.6248 26.8902 90.5437 26.7182 90.3943 26.5948C90.245 26.4649 90.0534 26.4 89.8197 26.4C89.6184 26.4 89.4561 26.4552 89.3328 26.5656C89.2094 26.6695 89.1477 26.822 89.1477 27.0233C89.1477 27.2441 89.2516 27.4161 89.4594 27.5395C89.6671 27.6629 89.9918 27.796 90.4333 27.9388C90.8748 28.0881 91.2319 28.231 91.5046 28.3673C91.7838 28.5037 92.024 28.7017 92.2253 28.9614C92.4265 29.2211 92.5272 29.5555 92.5272 29.9645C92.5272 30.3541 92.4265 30.708 92.2253 31.0261C92.0305 31.3443 91.7448 31.5975 91.3682 31.7858C90.9917 31.974 90.5469 32.0682 90.034 32.0682Z" fill="#0448AC"/>
<path d="M96.5128 32.0779C95.9804 32.0779 95.4999 31.9643 95.0714 31.7371C94.6494 31.5098 94.315 31.1852 94.0683 30.7631C93.828 30.3411 93.7079 29.8477 93.7079 29.2828C93.7079 28.7244 93.8313 28.2342 94.078 27.8122C94.3247 27.3837 94.6623 27.0558 95.0909 26.8285C95.5194 26.6013 95.9998 26.4877 96.5323 26.4877C97.0647 26.4877 97.5451 26.6013 97.9736 26.8285C98.4022 27.0558 98.7398 27.3837 98.9865 27.8122C99.2332 28.2342 99.3566 28.7244 99.3566 29.2828C99.3566 29.8412 99.23 30.3346 98.9768 30.7631C98.73 31.1852 98.3892 31.5098 97.9542 31.7371C97.5256 31.9643 97.0452 32.0779 96.5128 32.0779ZM96.5128 30.6365C96.8309 30.6365 97.1004 30.5197 97.3211 30.2859C97.5484 30.0522 97.662 29.7178 97.662 29.2828C97.662 28.8478 97.5516 28.5134 97.3309 28.2797C97.1166 28.0459 96.8504 27.9291 96.5323 27.9291C96.2076 27.9291 95.9382 28.0459 95.7239 28.2797C95.5096 28.5069 95.4025 28.8413 95.4025 29.2828C95.4025 29.7178 95.5064 30.0522 95.7142 30.2859C95.9284 30.5197 96.1946 30.6365 96.5128 30.6365Z" fill="#0448AC"/>
<path d="M100.396 29.2828C100.396 28.7179 100.51 28.2245 100.737 27.8025C100.971 27.3804 101.292 27.0558 101.701 26.8285C102.117 26.6013 102.59 26.4877 103.123 26.4877C103.805 26.4877 104.373 26.6662 104.827 27.0233C105.288 27.3804 105.59 27.8836 105.733 28.5329H103.96C103.811 28.1174 103.522 27.9096 103.094 27.9096C102.789 27.9096 102.545 28.0297 102.363 28.2699C102.181 28.5037 102.091 28.8413 102.091 29.2828C102.091 29.7243 102.181 30.0652 102.363 30.3054C102.545 30.5391 102.789 30.656 103.094 30.656C103.522 30.656 103.811 30.4483 103.96 30.0327H105.733C105.59 30.669 105.288 31.1689 104.827 31.5325C104.366 31.8961 103.798 32.0779 103.123 32.0779C102.59 32.0779 102.117 31.9643 101.701 31.7371C101.292 31.5098 100.971 31.1852 100.737 30.7631C100.51 30.3411 100.396 29.8477 100.396 29.2828Z" fill="#0448AC"/>
<path d="M107.948 26.0007C107.656 26.0007 107.416 25.9163 107.228 25.7475C107.046 25.5722 106.955 25.3579 106.955 25.1047C106.955 24.845 107.046 24.6307 107.228 24.4619C107.416 24.2866 107.656 24.199 107.948 24.199C108.234 24.199 108.468 24.2866 108.65 24.4619C108.838 24.6307 108.932 24.845 108.932 25.1047C108.932 25.3579 108.838 25.5722 108.65 25.7475C108.468 25.9163 108.234 26.0007 107.948 26.0007ZM108.776 26.5656V32H107.111V26.5656H108.776Z" fill="#0448AC"/>
<path d="M110.139 29.2731C110.139 28.7147 110.243 28.2245 110.451 27.8025C110.665 27.3804 110.954 27.0558 111.317 26.8285C111.681 26.6013 112.087 26.4877 112.535 26.4877C112.918 26.4877 113.252 26.5656 113.538 26.7214C113.83 26.8772 114.054 27.0818 114.21 27.335V26.5656H115.875V32H114.21V31.2306C114.048 31.4838 113.82 31.6884 113.528 31.8442C113.242 32 112.908 32.0779 112.525 32.0779C112.083 32.0779 111.681 31.9643 111.317 31.7371C110.954 31.5033 110.665 31.1754 110.451 30.7534C110.243 30.3249 110.139 29.8314 110.139 29.2731ZM114.21 29.2828C114.21 28.8673 114.093 28.5394 113.859 28.2991C113.632 28.0589 113.353 27.9388 113.022 27.9388C112.691 27.9388 112.408 28.0589 112.174 28.2991C111.947 28.5329 111.833 28.8575 111.833 29.2731C111.833 29.6886 111.947 30.0197 112.174 30.2665C112.408 30.5067 112.691 30.6268 113.022 30.6268C113.353 30.6268 113.632 30.5067 113.859 30.2665C114.093 30.0262 114.21 29.6983 114.21 29.2828Z" fill="#0448AC"/>
<path d="M119.232 24.7931V32H117.567V24.7931H119.232Z" fill="#0448AC"/>
<path d="M128.185 25.1631V26.4974H125.4V27.9388H127.484V29.2341H125.4V32H123.734V25.1631H128.185Z" fill="#0448AC"/>
<path d="M132.021 32.0779C131.489 32.0779 131.008 31.9643 130.58 31.7371C130.158 31.5098 129.823 31.1852 129.576 30.7631C129.336 30.3411 129.216 29.8477 129.216 29.2828C129.216 28.7244 129.339 28.2342 129.586 27.8122C129.833 27.3837 130.171 27.0558 130.599 26.8285C131.028 26.6013 131.508 26.4877 132.04 26.4877C132.573 26.4877 133.053 26.6013 133.482 26.8285C133.91 27.0558 134.248 27.3837 134.495 27.8122C134.741 28.2342 134.865 28.7244 134.865 29.2828C134.865 29.8412 134.738 30.3346 134.485 30.7631C134.238 31.1852 133.897 31.5098 133.462 31.7371C133.034 31.9643 132.553 32.0779 132.021 32.0779ZM132.021 30.6365C132.339 30.6365 132.609 30.5197 132.829 30.2859C133.057 30.0522 133.17 29.7178 133.17 29.2828C133.17 28.8478 133.06 28.5134 132.839 28.2797C132.625 28.0459 132.359 27.9291 132.04 27.9291C131.716 27.9291 131.446 28.0459 131.232 28.2797C131.018 28.5069 130.911 28.8413 130.911 29.2828C130.911 29.7178 131.015 30.0522 131.222 30.2859C131.437 30.5197 131.703 30.6365 132.021 30.6365Z" fill="#0448AC"/>
<path d="M141.602 26.5656V32H139.936V31.2598C139.767 31.5001 139.537 31.6949 139.245 31.8442C138.959 31.987 138.641 32.0585 138.29 32.0585C137.875 32.0585 137.508 31.9676 137.19 31.7858C136.872 31.5975 136.625 31.328 136.45 30.9774C136.274 30.6268 136.187 30.2145 136.187 29.7405V26.5656H137.842V29.5165C137.842 29.8801 137.936 30.1626 138.125 30.3638C138.313 30.5651 138.566 30.6658 138.884 30.6658C139.209 30.6658 139.465 30.5651 139.654 30.3638C139.842 30.1626 139.936 29.8801 139.936 29.5165V26.5656H141.602Z" fill="#0448AC"/>
<path d="M146.596 26.5071C147.232 26.5071 147.739 26.7149 148.115 27.1305C148.498 27.5395 148.69 28.1044 148.69 28.8251V32H147.034V29.0491C147.034 28.6855 146.94 28.403 146.752 28.2018C146.564 28.0005 146.31 27.8998 145.992 27.8998C145.674 27.8998 145.421 28.0005 145.233 28.2018C145.044 28.403 144.95 28.6855 144.95 29.0491V32H143.285V26.5656H144.95V27.2863C145.119 27.046 145.346 26.8578 145.632 26.7214C145.918 26.5786 146.239 26.5071 146.596 26.5071Z" fill="#0448AC"/>
<path d="M150.003 29.2731C150.003 28.7147 150.107 28.2245 150.315 27.8025C150.529 27.3804 150.818 27.0558 151.181 26.8285C151.545 26.6013 151.951 26.4877 152.399 26.4877C152.756 26.4877 153.081 26.5623 153.373 26.7117C153.671 26.861 153.905 27.0623 154.074 27.3155V24.7931H155.739V32H154.074V31.2209C153.918 31.4806 153.694 31.6884 153.402 31.8442C153.116 32 152.782 32.0779 152.399 32.0779C151.951 32.0779 151.545 31.9643 151.181 31.7371C150.818 31.5033 150.529 31.1754 150.315 30.7534C150.107 30.3249 150.003 29.8314 150.003 29.2731ZM154.074 29.2828C154.074 28.8673 153.957 28.5394 153.723 28.2991C153.496 28.0589 153.217 27.9388 152.886 27.9388C152.555 27.9388 152.272 28.0589 152.039 28.2991C151.811 28.5329 151.698 28.8575 151.698 29.2731C151.698 29.6886 151.811 30.0197 152.039 30.2665C152.272 30.5067 152.555 30.6268 152.886 30.6268C153.217 30.6268 153.496 30.5067 153.723 30.2665C153.957 30.0262 154.074 29.6983 154.074 29.2828Z" fill="#0448AC"/>
<path d="M157.1 29.2731C157.1 28.7147 157.204 28.2245 157.412 27.8025C157.626 27.3804 157.915 27.0558 158.278 26.8285C158.642 26.6013 159.048 26.4877 159.496 26.4877C159.879 26.4877 160.213 26.5656 160.499 26.7214C160.791 26.8772 161.015 27.0818 161.171 27.335V26.5656H162.836V32H161.171V31.2306C161.009 31.4838 160.781 31.6884 160.489 31.8442C160.204 32 159.869 32.0779 159.486 32.0779C159.045 32.0779 158.642 31.9643 158.278 31.7371C157.915 31.5033 157.626 31.1754 157.412 30.7534C157.204 30.3249 157.1 29.8314 157.1 29.2731ZM161.171 29.2828C161.171 28.8673 161.054 28.5394 160.82 28.2991C160.593 28.0589 160.314 27.9388 159.983 27.9388C159.652 27.9388 159.369 28.0589 159.136 28.2991C158.908 28.5329 158.795 28.8575 158.795 29.2731C158.795 29.6886 158.908 30.0197 159.136 30.2665C159.369 30.5067 159.652 30.6268 159.983 30.6268C160.314 30.6268 160.593 30.5067 160.82 30.2665C161.054 30.0262 161.171 29.6983 161.171 29.2828Z" fill="#0448AC"/>
<path d="M167.557 30.5878V32H166.71C166.106 32 165.635 31.8539 165.298 31.5618C164.96 31.2631 164.791 30.7794 164.791 30.1106V27.9485H164.129V26.5656H164.791V25.2411H166.457V26.5656H167.547V27.9485H166.457V30.1301C166.457 30.2924 166.495 30.4093 166.573 30.4807C166.651 30.5521 166.781 30.5878 166.963 30.5878H167.557Z" fill="#0448AC"/>
<path d="M169.809 26.0007C169.517 26.0007 169.277 25.9163 169.089 25.7475C168.907 25.5722 168.816 25.3579 168.816 25.1047C168.816 24.845 168.907 24.6307 169.089 24.4619C169.277 24.2866 169.517 24.199 169.809 24.199C170.095 24.199 170.329 24.2866 170.51 24.4619C170.699 24.6307 170.793 24.845 170.793 25.1047C170.793 25.3579 170.699 25.5722 170.51 25.7475C170.329 25.9163 170.095 26.0007 169.809 26.0007ZM170.637 26.5656V32H168.972V26.5656H170.637Z" fill="#0448AC"/>
<path d="M174.805 32.0779C174.272 32.0779 173.792 31.9643 173.363 31.7371C172.941 31.5098 172.607 31.1852 172.36 30.7631C172.12 30.3411 172 29.8477 172 29.2828C172 28.7244 172.123 28.2342 172.37 27.8122C172.617 27.3837 172.954 27.0558 173.383 26.8285C173.811 26.6013 174.292 26.4877 174.824 26.4877C175.357 26.4877 175.837 26.6013 176.266 26.8285C176.694 27.0558 177.032 27.3837 177.278 27.8122C177.525 28.2342 177.648 28.7244 177.648 29.2828C177.648 29.8412 177.522 30.3346 177.269 30.7631C177.022 31.1852 176.681 31.5098 176.246 31.7371C175.818 31.9643 175.337 32.0779 174.805 32.0779ZM174.805 30.6365C175.123 30.6365 175.392 30.5197 175.613 30.2859C175.84 30.0522 175.954 29.7178 175.954 29.2828C175.954 28.8478 175.843 28.5134 175.623 28.2797C175.408 28.0459 175.142 27.9291 174.824 27.9291C174.499 27.9291 174.23 28.0459 174.016 28.2797C173.802 28.5069 173.694 28.8413 173.694 29.2828C173.694 29.7178 173.798 30.0522 174.006 30.2859C174.22 30.5197 174.486 30.6365 174.805 30.6365Z" fill="#0448AC"/>
<path d="M182.33 26.5071C182.967 26.5071 183.473 26.7149 183.85 27.1305C184.233 27.5395 184.424 28.1044 184.424 28.8251V32H182.769V29.0491C182.769 28.6855 182.674 28.403 182.486 28.2018C182.298 28.0005 182.045 27.8998 181.726 27.8998C181.408 27.8998 181.155 28.0005 180.967 28.2018C180.778 28.403 180.684 28.6855 180.684 29.0491V32H179.019V26.5656H180.684V27.2863C180.853 27.046 181.08 26.8578 181.366 26.7214C181.652 26.5786 181.973 26.5071 182.33 26.5071Z" fill="#0448AC"/>
<path d="M88.192 37.2925C87.9415 37.2925 87.7356 37.2202 87.5742 37.0755C87.4184 36.9252 87.3405 36.7416 87.3405 36.5245C87.3405 36.3019 87.4184 36.1183 87.5742 35.9736C87.7356 35.8233 87.9415 35.7482 88.192 35.7482C88.4368 35.7482 88.6372 35.8233 88.793 35.9736C88.9544 36.1183 89.0351 36.3019 89.0351 36.5245C89.0351 36.7416 88.9544 36.9252 88.793 37.0755C88.6372 37.2202 88.4368 37.2925 88.192 37.2925ZM88.9015 37.7767V42.4348H87.474V37.7767H88.9015Z" fill="#0448AC"/>
<path d="M92.6908 37.7266C93.2362 37.7266 93.6703 37.9047 93.993 38.2609C94.3214 38.6115 94.4856 39.0956 94.4856 39.7134V42.4348H93.0664V39.9054C93.0664 39.5937 92.9857 39.3516 92.8244 39.1791C92.663 39.0066 92.4459 38.9203 92.1732 38.9203C91.9005 38.9203 91.6835 39.0066 91.5221 39.1791C91.3607 39.3516 91.28 39.5937 91.28 39.9054V42.4348H89.8525V37.7767H91.28V38.3944C91.4247 38.1885 91.6195 38.0271 91.8644 37.9103C92.1092 37.7878 92.3847 37.7266 92.6908 37.7266Z" fill="#0448AC"/>
<path d="M97.7975 37.2925C97.5471 37.2925 97.3412 37.2202 97.1798 37.0755C97.0239 36.9252 96.946 36.7416 96.946 36.5245C96.946 36.3019 97.0239 36.1183 97.1798 35.9736C97.3412 35.8233 97.5471 35.7482 97.7975 35.7482C98.0424 35.7482 98.2427 35.8233 98.3985 35.9736C98.5599 36.1183 98.6406 36.3019 98.6406 36.5245C98.6406 36.7416 98.5599 36.9252 98.3985 37.0755C98.2427 37.2202 98.0424 37.2925 97.7975 37.2925ZM98.5071 37.7767V42.4348H97.0796V37.7767H98.5071Z" fill="#0448AC"/>
<path d="M102.054 41.2243V42.4348H101.328C100.81 42.4348 100.407 42.3096 100.118 42.0591C99.8282 41.8031 99.6835 41.3885 99.6835 40.8153V38.9621H99.1158V37.7767H99.6835V36.6414H101.111V37.7767H102.046V38.9621H101.111V40.832C101.111 40.9711 101.144 41.0713 101.211 41.1325C101.278 41.1937 101.389 41.2243 101.545 41.2243H102.054Z" fill="#0448AC"/>
<path d="M107.048 41.2243V42.4348H106.321C105.804 42.4348 105.4 42.3096 105.111 42.0591C104.822 41.8031 104.677 41.3885 104.677 40.8153V38.9621H104.109V37.7767H104.677V36.6414H106.104V37.7767H107.039V38.9621H106.104V40.832C106.104 40.9711 106.138 41.0713 106.204 41.1325C106.271 41.1937 106.383 41.2243 106.538 41.2243H107.048Z" fill="#0448AC"/>
<path d="M109.88 42.5016C109.423 42.5016 109.011 42.4042 108.644 42.2094C108.282 42.0146 107.996 41.7363 107.784 41.3746C107.578 41.0129 107.475 40.5899 107.475 40.1057C107.475 39.6271 107.581 39.207 107.793 38.8452C108.004 38.4779 108.294 38.1969 108.661 38.0021C109.028 37.8073 109.44 37.7099 109.896 37.7099C110.353 37.7099 110.764 37.8073 111.132 38.0021C111.499 38.1969 111.788 38.4779 112 38.8452C112.211 39.207 112.317 39.6271 112.317 40.1057C112.317 40.5843 112.209 41.0073 111.992 41.3746C111.78 41.7363 111.488 42.0146 111.115 42.2094C110.748 42.4042 110.336 42.5016 109.88 42.5016ZM109.88 41.2661C110.152 41.2661 110.383 41.1659 110.572 40.9656C110.767 40.7652 110.865 40.4786 110.865 40.1057C110.865 39.7329 110.77 39.4463 110.581 39.2459C110.397 39.0456 110.169 38.9454 109.896 38.9454C109.618 38.9454 109.387 39.0456 109.203 39.2459C109.02 39.4407 108.928 39.7273 108.928 40.1057C108.928 40.4786 109.017 40.7652 109.195 40.9656C109.379 41.1659 109.607 41.2661 109.88 41.2661Z" fill="#0448AC"/>
<path d="M114.761 37.7099C115.089 37.7099 115.376 37.7767 115.621 37.9103C115.871 38.0438 116.063 38.2191 116.197 38.4362V37.7767H117.624V42.4264C117.624 42.855 117.538 43.2417 117.365 43.5868C117.198 43.9374 116.94 44.2156 116.589 44.4216C116.244 44.6275 115.813 44.7304 115.295 44.7304C114.605 44.7304 114.046 44.5663 113.617 44.2379C113.189 43.9151 112.944 43.4755 112.882 42.919H114.293C114.338 43.097 114.444 43.2362 114.61 43.3363C114.777 43.4421 114.983 43.495 115.228 43.495C115.523 43.495 115.757 43.4087 115.929 43.2362C116.108 43.0692 116.197 42.7993 116.197 42.4264V41.767C116.057 41.984 115.865 42.1621 115.621 42.3012C115.376 42.4348 115.089 42.5016 114.761 42.5016C114.377 42.5016 114.029 42.4042 113.717 42.2094C113.406 42.009 113.158 41.728 112.974 41.3663C112.796 40.999 112.707 40.576 112.707 40.0974C112.707 39.6188 112.796 39.1986 112.974 38.8369C113.158 38.4751 113.406 38.1969 113.717 38.0021C114.029 37.8073 114.377 37.7099 114.761 37.7099ZM116.197 40.1057C116.197 39.7496 116.096 39.4685 115.896 39.2626C115.701 39.0567 115.462 38.9537 115.178 38.9537C114.894 38.9537 114.652 39.0567 114.452 39.2626C114.257 39.463 114.16 39.7412 114.16 40.0974C114.16 40.4536 114.257 40.7374 114.452 40.9489C114.652 41.1548 114.894 41.2577 115.178 41.2577C115.462 41.2577 115.701 41.1548 115.896 40.9489C116.096 40.743 116.197 40.4619 116.197 40.1057Z" fill="#0448AC"/>
<path d="M122.964 40.0306C122.964 40.1642 122.956 40.3033 122.939 40.448H119.709C119.731 40.7374 119.823 40.96 119.984 41.1158C120.151 41.2661 120.354 41.3412 120.593 41.3412C120.95 41.3412 121.197 41.191 121.336 40.8904H122.856C122.778 41.1965 122.636 41.472 122.43 41.7169C122.23 41.9617 121.976 42.1537 121.67 42.2929C121.364 42.432 121.022 42.5016 120.644 42.5016C120.187 42.5016 119.781 42.4042 119.425 42.2094C119.069 42.0146 118.79 41.7363 118.59 41.3746C118.39 41.0129 118.289 40.5899 118.289 40.1057C118.289 39.6216 118.387 39.1986 118.582 38.8369C118.782 38.4751 119.06 38.1969 119.416 38.0021C119.773 37.8073 120.182 37.7099 120.644 37.7099C121.094 37.7099 121.495 37.8045 121.846 37.9937C122.196 38.183 122.469 38.4529 122.664 38.8035C122.864 39.1541 122.964 39.5631 122.964 40.0306ZM121.503 39.655C121.503 39.4101 121.42 39.2153 121.253 39.0706C121.086 38.9259 120.877 38.8536 120.627 38.8536C120.388 38.8536 120.184 38.9231 120.017 39.0623C119.856 39.2014 119.756 39.399 119.717 39.655H121.503Z" fill="#0448AC"/>
<path d="M126.23 41.2243V42.4348H125.504C124.986 42.4348 124.583 42.3096 124.293 42.0591C124.004 41.8031 123.859 41.3885 123.859 40.8153V38.9621H123.292V37.7767H123.859V36.6414H125.287V37.7767H126.222V38.9621H125.287V40.832C125.287 40.9711 125.32 41.0713 125.387 41.1325C125.454 41.1937 125.565 41.2243 125.721 41.2243H126.23Z" fill="#0448AC"/>
<path d="M129.805 37.7266C130.339 37.7266 130.768 37.9047 131.091 38.2609C131.413 38.6115 131.575 39.0956 131.575 39.7134V42.4348H130.156V39.9054C130.156 39.5937 130.075 39.3516 129.913 39.1791C129.752 39.0066 129.535 38.9203 129.262 38.9203C128.99 38.9203 128.773 39.0066 128.611 39.1791C128.45 39.3516 128.369 39.5937 128.369 39.9054V42.4348H126.942V36.2574H128.369V38.4028C128.514 38.1969 128.711 38.0327 128.962 37.9103C129.212 37.7878 129.493 37.7266 129.805 37.7266Z" fill="#0448AC"/>
<path d="M136.874 40.0306C136.874 40.1642 136.866 40.3033 136.849 40.448H133.618C133.641 40.7374 133.733 40.96 133.894 41.1158C134.061 41.2661 134.264 41.3412 134.503 41.3412C134.86 41.3412 135.107 41.191 135.246 40.8904H136.766C136.688 41.1965 136.546 41.472 136.34 41.7169C136.14 41.9617 135.886 42.1537 135.58 42.2929C135.274 42.432 134.932 42.5016 134.553 42.5016C134.097 42.5016 133.691 42.4042 133.335 42.2094C132.978 42.0146 132.7 41.7363 132.5 41.3746C132.3 41.0129 132.199 40.5899 132.199 40.1057C132.199 39.6216 132.297 39.1986 132.492 38.8369C132.692 38.4751 132.97 38.1969 133.326 38.0021C133.682 37.8073 134.092 37.7099 134.553 37.7099C135.004 37.7099 135.405 37.8045 135.756 37.9937C136.106 38.183 136.379 38.4529 136.574 38.8035C136.774 39.1541 136.874 39.5631 136.874 40.0306ZM135.413 39.655C135.413 39.4101 135.33 39.2153 135.163 39.0706C134.996 38.9259 134.787 38.8536 134.537 38.8536C134.297 38.8536 134.094 38.9231 133.927 39.0623C133.766 39.2014 133.666 39.399 133.627 39.655H135.413Z" fill="#0448AC"/>
<path d="M138.971 38.553C139.138 38.297 139.347 38.0967 139.597 37.952C139.848 37.8017 140.126 37.7266 140.432 37.7266V39.2376H140.04C139.684 39.2376 139.416 39.3155 139.238 39.4713C139.06 39.6216 138.971 39.8887 138.971 40.2727V42.4348H137.544V37.7767H138.971V38.553Z" fill="#0448AC"/>
<path d="M37.1183 23.6235C39.1712 23.6235 40.8052 24.3351 42.0202 25.7581C43.2561 27.159 43.8741 29.0935 43.8741 31.5616V42.4347H38.5323V32.3287C38.5323 31.0835 38.2286 30.1163 37.6211 29.427C37.0136 28.7377 36.1966 28.393 35.1701 28.393C34.1437 28.393 33.3267 28.7377 32.7192 29.427C32.1117 30.1163 31.808 31.0835 31.808 32.3287V42.4347H26.4348V23.8237H31.808V26.2918C32.3526 25.4691 33.0858 24.8243 34.0075 24.3573C34.9292 23.8681 35.9662 23.6235 37.1183 23.6235Z" fill="#0448AC"/>
<path d="M63.2848 33.3293H57.8174V39.2662H52.727V33.3293H47.2596V28.2263H52.727V22.2561H57.8174V28.2263H63.2848V33.3293Z" fill="#0448AC"/>
<path d="M65.7309 23.3901V18.0869H74.4348V42.4347H68.8416V23.3901H65.7309Z" fill="#0448AC"/>
</svg>
