<svg width="162" height="43" viewBox="0 0 162 43" fill="none" xmlns="http://www.w3.org/2000/svg">
<path d="M0 9.77709C0 4.37735 4.37735 0 9.77709 0H41.5526C46.9523 0 51.3297 4.37735 51.3297 9.77709V32.3866C51.3297 37.7863 46.9524 42.1637 41.5526 42.1637H9.77709C4.37735 42.1637 0 37.7863 0 32.3866V9.77709Z" fill="white" fill-opacity="0.34"/>
<path d="M79.0867 28.1692C78.6476 28.1692 78.2541 28.0979 77.9062 27.9554C77.5583 27.8128 77.2788 27.6018 77.0678 27.3223C76.8625 27.0428 76.7541 26.7063 76.7427 26.3128H78.2997C78.3225 26.5352 78.3995 26.7063 78.5307 26.8261C78.6619 26.9402 78.833 26.9972 79.044 26.9972C79.2607 26.9972 79.4318 26.9487 79.5573 26.8518C79.6827 26.7491 79.7455 26.6094 79.7455 26.4326C79.7455 26.2843 79.6941 26.1617 79.5915 26.0647C79.4945 25.9678 79.3719 25.8879 79.2236 25.8252C79.081 25.7624 78.8757 25.6912 78.6077 25.6113C78.2198 25.4915 77.9033 25.3718 77.6581 25.252C77.4128 25.1322 77.2018 24.9554 77.025 24.7216C76.8482 24.4878 76.7598 24.1826 76.7598 23.8062C76.7598 23.2473 76.9623 22.811 77.3672 22.4973C77.7721 22.1779 78.2997 22.0182 78.9499 22.0182C79.6115 22.0182 80.1447 22.1779 80.5496 22.4973C80.9546 22.811 81.1713 23.2501 81.1998 23.8148H79.6172C79.6057 23.6209 79.5345 23.4697 79.4033 23.3614C79.2721 23.2473 79.1039 23.1903 78.8985 23.1903C78.7217 23.1903 78.5792 23.2387 78.4708 23.3357C78.3624 23.4269 78.3082 23.561 78.3082 23.7378C78.3082 23.9317 78.3995 24.0828 78.582 24.1912C78.7645 24.2995 79.0497 24.4165 79.4375 24.5419C79.8253 24.6731 80.139 24.7986 80.3785 24.9184C80.6238 25.0381 80.8348 25.2121 81.0116 25.4402C81.1884 25.6683 81.2768 25.9621 81.2768 26.3214C81.2768 26.6636 81.1884 26.9744 81.0116 27.2539C80.8405 27.5333 80.5896 27.7557 80.2588 27.9211C79.928 28.0865 79.5373 28.1692 79.0867 28.1692Z" fill="white"/>
<path d="M84.7778 28.1778C84.3101 28.1778 83.8881 28.078 83.5117 27.8784C83.1409 27.6788 82.8472 27.3936 82.6305 27.0229C82.4195 26.6522 82.314 26.2187 82.314 25.7225C82.314 25.232 82.4223 24.8014 82.6391 24.4307C82.8558 24.0543 83.1524 23.7663 83.5288 23.5667C83.9052 23.3671 84.3272 23.2672 84.7949 23.2672C85.2626 23.2672 85.6846 23.3671 86.061 23.5667C86.4375 23.7663 86.734 24.0543 86.9508 24.4307C87.1675 24.8014 87.2758 25.232 87.2758 25.7225C87.2758 26.213 87.1646 26.6465 86.9422 27.0229C86.7255 27.3936 86.426 27.6788 86.0439 27.8784C85.6675 28.078 85.2455 28.1778 84.7778 28.1778ZM84.7778 26.9117C85.0573 26.9117 85.2939 26.809 85.4879 26.6037C85.6875 26.3984 85.7873 26.1046 85.7873 25.7225C85.7873 25.3404 85.6903 25.0467 85.4964 24.8414C85.3082 24.636 85.0744 24.5334 84.7949 24.5334C84.5097 24.5334 84.2731 24.636 84.0848 24.8414C83.8966 25.041 83.8025 25.3347 83.8025 25.7225C83.8025 26.1046 83.8938 26.3984 84.0763 26.6037C84.2645 26.809 84.4983 26.9117 84.7778 26.9117Z" fill="white"/>
<path d="M88.1888 25.7225C88.1888 25.2263 88.2886 24.7929 88.4882 24.4222C88.6936 24.0515 88.9759 23.7663 89.3352 23.5667C89.7002 23.3671 90.1165 23.2672 90.5842 23.2672C91.183 23.2672 91.6821 23.4241 92.0813 23.7378C92.4862 24.0515 92.7515 24.4935 92.8769 25.0638H91.3199C91.1887 24.6988 90.935 24.5163 90.5585 24.5163C90.2905 24.5163 90.0766 24.6218 89.9169 24.8328C89.7572 25.0381 89.6774 25.3347 89.6774 25.7225C89.6774 26.1103 89.7572 26.4098 89.9169 26.6208C90.0766 26.8261 90.2905 26.9288 90.5585 26.9288C90.935 26.9288 91.1887 26.7463 91.3199 26.3813H92.8769C92.7515 26.9402 92.4862 27.3793 92.0813 27.6987C91.6764 28.0181 91.1773 28.1778 90.5842 28.1778C90.1165 28.1778 89.7002 28.078 89.3352 27.8784C88.9759 27.6788 88.6936 27.3936 88.4882 27.0229C88.2886 26.6522 88.1888 26.2187 88.1888 25.7225Z" fill="white"/>
<path d="M94.8229 22.8395C94.5663 22.8395 94.3552 22.7654 94.1898 22.6171C94.0301 22.4631 93.9503 22.2749 93.9503 22.0524C93.9503 21.8243 94.0301 21.6361 94.1898 21.4878C94.3552 21.3338 94.5663 21.2568 94.8229 21.2568C95.0739 21.2568 95.2792 21.3338 95.4389 21.4878C95.6043 21.6361 95.687 21.8243 95.687 22.0524C95.687 22.2749 95.6043 22.4631 95.4389 22.6171C95.2792 22.7654 95.0739 22.8395 94.8229 22.8395ZM95.5501 23.3357V28.1094H94.0872V23.3357H95.5501Z" fill="white"/>
<path d="M96.7471 25.714C96.7471 25.2235 96.8384 24.7929 97.0209 24.4222C97.2091 24.0515 97.4629 23.7663 97.7823 23.5667C98.1016 23.3671 98.4581 23.2672 98.8516 23.2672C99.1881 23.2672 99.4818 23.3357 99.7328 23.4726C99.9894 23.6094 100.186 23.7891 100.323 24.0115V23.3357H101.786V28.1094H100.323V27.4335C100.18 27.6559 99.9809 27.8356 99.7242 27.9725C99.4733 28.1094 99.1796 28.1778 98.8431 28.1778C98.4552 28.1778 98.1016 28.078 97.7823 27.8784C97.4629 27.673 97.2091 27.385 97.0209 27.0143C96.8384 26.6379 96.7471 26.2044 96.7471 25.714ZM100.323 25.7225C100.323 25.3575 100.22 25.0695 100.015 24.8585C99.8155 24.6474 99.5702 24.5419 99.2794 24.5419C98.9885 24.5419 98.7404 24.6474 98.5351 24.8585C98.3355 25.0638 98.2357 25.349 98.2357 25.714C98.2357 26.079 98.3355 26.3698 98.5351 26.5866C98.7404 26.7976 98.9885 26.9031 99.2794 26.9031C99.5702 26.9031 99.8155 26.7976 100.015 26.5866C100.22 26.3755 100.323 26.0875 100.323 25.7225Z" fill="white"/>
<path d="M104.735 21.7787V28.1094H103.272V21.7787H104.735Z" fill="white"/>
<path d="M112.599 22.1038V23.2758H110.152V24.5419H111.983V25.6797H110.152V28.1094H108.689V22.1038H112.599Z" fill="white"/>
<path d="M115.969 28.1778C115.501 28.1778 115.079 28.078 114.702 27.8784C114.332 27.6788 114.038 27.3936 113.821 27.0229C113.61 26.6522 113.505 26.2187 113.505 25.7225C113.505 25.232 113.613 24.8014 113.83 24.4307C114.047 24.0543 114.343 23.7663 114.72 23.5667C115.096 23.3671 115.518 23.2672 115.986 23.2672C116.453 23.2672 116.875 23.3671 117.252 23.5667C117.628 23.7663 117.925 24.0543 118.141 24.4307C118.358 24.8014 118.467 25.232 118.467 25.7225C118.467 26.213 118.355 26.6465 118.133 27.0229C117.916 27.3936 117.617 27.6788 117.235 27.8784C116.858 28.078 116.436 28.1778 115.969 28.1778ZM115.969 26.9117C116.248 26.9117 116.485 26.809 116.679 26.6037C116.878 26.3984 116.978 26.1046 116.978 25.7225C116.978 25.3404 116.881 25.0467 116.687 24.8414C116.499 24.636 116.265 24.5334 115.986 24.5334C115.7 24.5334 115.464 24.636 115.276 24.8414C115.087 25.041 114.993 25.3347 114.993 25.7225C114.993 26.1046 115.085 26.3984 115.267 26.6037C115.455 26.809 115.689 26.9117 115.969 26.9117Z" fill="white"/>
<path d="M124.384 23.3357V28.1094H122.921V27.4592C122.773 27.6702 122.571 27.8413 122.314 27.9725C122.063 28.0979 121.783 28.1607 121.476 28.1607C121.11 28.1607 120.788 28.0808 120.509 27.9211C120.229 27.7557 120.013 27.5191 119.859 27.2111C119.705 26.9031 119.628 26.5409 119.628 26.1246V23.3357H121.082V25.9278C121.082 26.2472 121.165 26.4953 121.33 26.6721C121.495 26.8489 121.718 26.9373 121.997 26.9373C122.283 26.9373 122.508 26.8489 122.673 26.6721C122.839 26.4953 122.921 26.2472 122.921 25.9278V23.3357H124.384Z" fill="white"/>
<path d="M128.771 23.2844C129.33 23.2844 129.775 23.4669 130.106 23.8319C130.442 24.1912 130.611 24.6874 130.611 25.3204V28.1094H129.156V25.5172C129.156 25.1978 129.074 24.9497 128.908 24.7729C128.743 24.5961 128.52 24.5077 128.241 24.5077C127.962 24.5077 127.739 24.5961 127.574 24.7729C127.408 24.9497 127.326 25.1978 127.326 25.5172V28.1094H125.863V23.3357H127.326V23.9688C127.474 23.7577 127.674 23.5923 127.924 23.4726C128.175 23.3471 128.458 23.2844 128.771 23.2844Z" fill="white"/>
<path d="M131.764 25.714C131.764 25.2235 131.855 24.7929 132.038 24.4222C132.226 24.0515 132.48 23.7663 132.799 23.5667C133.119 23.3671 133.475 23.2672 133.869 23.2672C134.182 23.2672 134.468 23.3328 134.724 23.464C134.987 23.5952 135.192 23.772 135.34 23.9944V21.7787H136.803V28.1094H135.34V27.425C135.203 27.6531 135.006 27.8356 134.75 27.9725C134.499 28.1094 134.205 28.1778 133.869 28.1778C133.475 28.1778 133.119 28.078 132.799 27.8784C132.48 27.673 132.226 27.385 132.038 27.0143C131.855 26.6379 131.764 26.2044 131.764 25.714ZM135.34 25.7225C135.34 25.3575 135.237 25.0695 135.032 24.8585C134.833 24.6474 134.587 24.5419 134.296 24.5419C134.006 24.5419 133.757 24.6474 133.552 24.8585C133.353 25.0638 133.253 25.349 133.253 25.714C133.253 26.079 133.353 26.3698 133.552 26.5866C133.757 26.7976 134.006 26.9031 134.296 26.9031C134.587 26.9031 134.833 26.7976 135.032 26.5866C135.237 26.3755 135.34 26.0875 135.34 25.7225Z" fill="white"/>
<path d="M137.998 25.714C137.998 25.2235 138.09 24.7929 138.272 24.4222C138.46 24.0515 138.714 23.7663 139.033 23.5667C139.353 23.3671 139.709 23.2672 140.103 23.2672C140.439 23.2672 140.733 23.3357 140.984 23.4726C141.241 23.6094 141.437 23.7891 141.574 24.0115V23.3357H143.037V28.1094H141.574V27.4335C141.432 27.6559 141.232 27.8356 140.975 27.9725C140.724 28.1094 140.431 28.1778 140.094 28.1778C139.706 28.1778 139.353 28.078 139.033 27.8784C138.714 27.673 138.46 27.385 138.272 27.0143C138.09 26.6379 137.998 26.2044 137.998 25.714ZM141.574 25.7225C141.574 25.3575 141.472 25.0695 141.266 24.8585C141.067 24.6474 140.821 24.5419 140.531 24.5419C140.24 24.5419 139.992 24.6474 139.786 24.8585C139.587 25.0638 139.487 25.349 139.487 25.714C139.487 26.079 139.587 26.3698 139.786 26.5866C139.992 26.7976 140.24 26.9031 140.531 26.9031C140.821 26.9031 141.067 26.7976 141.266 26.5866C141.472 26.3755 141.574 26.0875 141.574 25.7225Z" fill="white"/>
<path d="M147.184 26.8689V28.1094H146.44C145.909 28.1094 145.496 27.981 145.199 27.7244C144.902 27.462 144.754 27.0371 144.754 26.4497V24.5505H144.172V23.3357H144.754V22.1722H146.217V23.3357H147.175V24.5505H146.217V26.4668C146.217 26.6094 146.251 26.712 146.32 26.7748C146.388 26.8375 146.502 26.8689 146.662 26.8689H147.184Z" fill="white"/>
<path d="M149.162 22.8395C148.905 22.8395 148.694 22.7654 148.529 22.6171C148.369 22.4631 148.29 22.2749 148.29 22.0524C148.29 21.8243 148.369 21.6361 148.529 21.4878C148.694 21.3338 148.905 21.2568 149.162 21.2568C149.413 21.2568 149.618 21.3338 149.778 21.4878C149.943 21.6361 150.026 21.8243 150.026 22.0524C150.026 22.2749 149.943 22.4631 149.778 22.6171C149.618 22.7654 149.413 22.8395 149.162 22.8395ZM149.889 23.3357V28.1094H148.426V23.3357H149.889Z" fill="white"/>
<path d="M153.55 28.1778C153.082 28.1778 152.66 28.078 152.284 27.8784C151.913 27.6788 151.62 27.3936 151.403 27.0229C151.192 26.6522 151.086 26.2187 151.086 25.7225C151.086 25.232 151.195 24.8014 151.411 24.4307C151.628 24.0543 151.925 23.7663 152.301 23.5667C152.678 23.3671 153.1 23.2672 153.567 23.2672C154.035 23.2672 154.457 23.3671 154.833 23.5667C155.21 23.7663 155.506 24.0543 155.723 24.4307C155.94 24.8014 156.048 25.232 156.048 25.7225C156.048 26.213 155.937 26.6465 155.715 27.0229C155.498 27.3936 155.198 27.6788 154.816 27.8784C154.44 28.078 154.018 28.1778 153.55 28.1778ZM153.55 26.9117C153.83 26.9117 154.066 26.809 154.26 26.6037C154.46 26.3984 154.56 26.1046 154.56 25.7225C154.56 25.3404 154.463 25.0467 154.269 24.8414C154.081 24.636 153.847 24.5334 153.567 24.5334C153.282 24.5334 153.045 24.636 152.857 24.8414C152.669 25.041 152.575 25.3347 152.575 25.7225C152.575 26.1046 152.666 26.3984 152.849 26.6037C153.037 26.809 153.271 26.9117 153.55 26.9117Z" fill="white"/>
<path d="M160.161 23.2844C160.72 23.2844 161.165 23.4669 161.495 23.8319C161.832 24.1912 162 24.6874 162 25.3204V28.1094H160.546V25.5172C160.546 25.1978 160.463 24.9497 160.298 24.7729C160.132 24.5961 159.91 24.5077 159.63 24.5077C159.351 24.5077 159.128 24.5961 158.963 24.7729C158.798 24.9497 158.715 25.1978 158.715 25.5172V28.1094H157.252V23.3357H158.715V23.9688C158.863 23.7577 159.063 23.5923 159.314 23.4726C159.565 23.3471 159.847 23.2844 160.161 23.2844Z" fill="white"/>
<path d="M77.4687 32.7582C77.2487 32.7582 77.0679 32.6946 76.9261 32.5675C76.7892 32.4355 76.7208 32.2742 76.7208 32.0836C76.7208 31.888 76.7892 31.7267 76.9261 31.5996C77.0679 31.4676 77.2487 31.4016 77.4687 31.4016C77.6838 31.4016 77.8598 31.4676 77.9967 31.5996C78.1384 31.7267 78.2093 31.888 78.2093 32.0836C78.2093 32.2742 78.1384 32.4355 77.9967 32.5675C77.8598 32.6946 77.6838 32.7582 77.4687 32.7582ZM78.092 33.1835V37.2752H76.8381V33.1835H78.092Z" fill="white"/>
<path d="M81.4205 33.1395C81.8996 33.1395 82.2809 33.2959 82.5644 33.6088C82.8529 33.9168 82.9971 34.3421 82.9971 34.8847V37.2752H81.7505V35.0534C81.7505 34.7796 81.6796 34.5669 81.5379 34.4154C81.3961 34.2639 81.2054 34.1881 80.9659 34.1881C80.7264 34.1881 80.5357 34.2639 80.3939 34.4154C80.2522 34.5669 80.1813 34.7796 80.1813 35.0534V37.2752H78.9274V33.1835H80.1813V33.7261C80.3084 33.5452 80.4795 33.4035 80.6946 33.3008C80.9097 33.1933 81.1517 33.1395 81.4205 33.1395Z" fill="white"/>
<path d="M85.9063 32.7582C85.6863 32.7582 85.5055 32.6946 85.3637 32.5675C85.2268 32.4355 85.1584 32.2742 85.1584 32.0836C85.1584 31.888 85.2268 31.7267 85.3637 31.5996C85.5055 31.4676 85.6863 31.4016 85.9063 31.4016C86.1214 31.4016 86.2974 31.4676 86.4343 31.5996C86.576 31.7267 86.6469 31.888 86.6469 32.0836C86.6469 32.2742 86.576 32.4355 86.4343 32.5675C86.2974 32.6946 86.1214 32.7582 85.9063 32.7582ZM86.5296 33.1835V37.2752H85.2757V33.1835H86.5296Z" fill="white"/>
<path d="M89.6455 36.2119V37.2752H89.0075C88.5529 37.2752 88.1985 37.1652 87.9443 36.9452C87.6901 36.7203 87.563 36.3562 87.563 35.8526V34.2247H87.0643V33.1835H87.563V32.1862H88.8169V33.1835H89.6381V34.2247H88.8169V35.8673C88.8169 35.9895 88.8462 36.0775 88.9049 36.1313C88.9635 36.1851 89.0613 36.2119 89.1982 36.2119H89.6455Z" fill="white"/>
<path d="M94.0317 36.2119V37.2752H93.3937C92.9391 37.2752 92.5847 37.1652 92.3305 36.9452C92.0763 36.7203 91.9492 36.3562 91.9492 35.8526V34.2247H91.4506V33.1835H91.9492V32.1862H93.2031V33.1835H94.0244V34.2247H93.2031V35.8673C93.2031 35.9895 93.2324 36.0775 93.2911 36.1313C93.3498 36.1851 93.4475 36.2119 93.5844 36.2119H94.0317Z" fill="white"/>
<path d="M96.5194 37.3339C96.1185 37.3339 95.7568 37.2483 95.4341 37.0772C95.1164 36.9061 94.8646 36.6617 94.6788 36.3439C94.4979 36.0262 94.4075 35.6546 94.4075 35.2293C94.4075 34.8089 94.5004 34.4398 94.6862 34.1221C94.8719 33.7994 95.1261 33.5526 95.4488 33.3815C95.7714 33.2104 96.1332 33.1248 96.534 33.1248C96.9349 33.1248 97.2966 33.2104 97.6193 33.3815C97.9419 33.5526 98.1961 33.7994 98.3819 34.1221C98.5677 34.4398 98.6605 34.8089 98.6605 35.2293C98.6605 35.6498 98.5652 36.0213 98.3746 36.3439C98.1888 36.6617 97.9321 36.9061 97.6046 37.0772C97.282 37.2483 96.9202 37.3339 96.5194 37.3339ZM96.5194 36.2486C96.7589 36.2486 96.9618 36.1606 97.128 35.9846C97.2991 35.8086 97.3846 35.5569 97.3846 35.2293C97.3846 34.9018 97.3015 34.65 97.1353 34.4741C96.974 34.2981 96.7736 34.2101 96.534 34.2101C96.2896 34.2101 96.0867 34.2981 95.9254 34.4741C95.7641 34.6452 95.6834 34.8969 95.6834 35.2293C95.6834 35.5569 95.7616 35.8086 95.9181 35.9846C96.0794 36.1606 96.2798 36.2486 96.5194 36.2486Z" fill="white"/>
<path d="M100.807 33.1248C101.095 33.1248 101.347 33.1835 101.562 33.3008C101.782 33.4181 101.951 33.5721 102.068 33.7628V33.1835H103.322V37.2679C103.322 37.6443 103.246 37.984 103.095 38.2871C102.948 38.5951 102.721 38.8395 102.413 39.0204C102.11 39.2013 101.731 39.2917 101.276 39.2917C100.67 39.2917 100.179 39.1475 99.8024 38.8591C99.426 38.5755 99.2109 38.1894 99.1571 37.7005H100.396C100.435 37.8569 100.528 37.9791 100.675 38.0671C100.822 38.16 101.003 38.2065 101.218 38.2065C101.477 38.2065 101.682 38.1307 101.834 37.9791C101.99 37.8325 102.068 37.5954 102.068 37.2679V36.6886C101.946 36.8792 101.777 37.0357 101.562 37.1579C101.347 37.2752 101.095 37.3339 100.807 37.3339C100.47 37.3339 100.164 37.2483 99.8904 37.0772C99.6166 36.9012 99.3991 36.6544 99.2378 36.3366C99.0813 36.014 99.0031 35.6424 99.0031 35.222C99.0031 34.8016 99.0813 34.4325 99.2378 34.1148C99.3991 33.797 99.6166 33.5526 99.8904 33.3815C100.164 33.2104 100.47 33.1248 100.807 33.1248ZM102.068 35.2293C102.068 34.9165 101.98 34.6696 101.804 34.4887C101.633 34.3079 101.423 34.2174 101.174 34.2174C100.924 34.2174 100.712 34.3079 100.536 34.4887C100.365 34.6647 100.279 34.9091 100.279 35.222C100.279 35.5349 100.365 35.7842 100.536 35.97C100.712 36.1508 100.924 36.2413 101.174 36.2413C101.423 36.2413 101.633 36.1508 101.804 35.97C101.98 35.7891 102.068 35.5422 102.068 35.2293Z" fill="white"/>
<path d="M108.013 35.1633C108.013 35.2807 108.006 35.4029 107.991 35.53H105.153C105.173 35.7842 105.253 35.9797 105.395 36.1166C105.542 36.2486 105.72 36.3146 105.931 36.3146C106.243 36.3146 106.461 36.1826 106.583 35.9186H107.918C107.849 36.1875 107.725 36.4295 107.544 36.6446C107.368 36.8597 107.145 37.0283 106.876 37.1505C106.608 37.2728 106.307 37.3339 105.975 37.3339C105.574 37.3339 105.217 37.2483 104.904 37.0772C104.591 36.9061 104.347 36.6617 104.171 36.3439C103.995 36.0262 103.907 35.6546 103.907 35.2293C103.907 34.804 103.992 34.4325 104.163 34.1148C104.339 33.797 104.584 33.5526 104.897 33.3815C105.209 33.2104 105.569 33.1248 105.975 33.1248C106.37 33.1248 106.722 33.2079 107.03 33.3741C107.338 33.5403 107.578 33.7774 107.749 34.0854C107.925 34.3934 108.013 34.7527 108.013 35.1633ZM106.73 34.8334C106.73 34.6183 106.656 34.4472 106.51 34.3201C106.363 34.193 106.18 34.1294 105.96 34.1294C105.75 34.1294 105.571 34.1905 105.425 34.3127C105.283 34.435 105.195 34.6085 105.161 34.8334H106.73Z" fill="white"/>
<path d="M110.882 36.2119V37.2752H110.244C109.789 37.2752 109.435 37.1652 109.18 36.9452C108.926 36.7203 108.799 36.3562 108.799 35.8526V34.2247H108.301V33.1835H108.799V32.1862H110.053V33.1835H110.874V34.2247H110.053V35.8673C110.053 35.9895 110.082 36.0775 110.141 36.1313C110.2 36.1851 110.298 36.2119 110.434 36.2119H110.882Z" fill="white"/>
<path d="M114.022 33.1395C114.491 33.1395 114.868 33.2959 115.151 33.6088C115.435 33.9168 115.577 34.3421 115.577 34.8847V37.2752H114.33V35.0534C114.33 34.7796 114.259 34.5669 114.117 34.4154C113.976 34.2639 113.785 34.1881 113.545 34.1881C113.306 34.1881 113.115 34.2639 112.973 34.4154C112.832 34.5669 112.761 34.7796 112.761 35.0534V37.2752H111.507V31.8489H112.761V33.7334C112.888 33.5526 113.061 33.4084 113.281 33.3008C113.501 33.1933 113.748 33.1395 114.022 33.1395Z" fill="white"/>
<path d="M120.232 35.1633C120.232 35.2807 120.224 35.4029 120.21 35.53H117.372C117.391 35.7842 117.472 35.9797 117.614 36.1166C117.76 36.2486 117.939 36.3146 118.149 36.3146C118.462 36.3146 118.68 36.1826 118.802 35.9186H120.136C120.068 36.1875 119.943 36.4295 119.762 36.6446C119.586 36.8597 119.364 37.0283 119.095 37.1505C118.826 37.2728 118.526 37.3339 118.193 37.3339C117.792 37.3339 117.435 37.2483 117.123 37.0772C116.81 36.9061 116.565 36.6617 116.389 36.3439C116.213 36.0262 116.125 35.6546 116.125 35.2293C116.125 34.804 116.211 34.4325 116.382 34.1148C116.558 33.797 116.802 33.5526 117.115 33.3815C117.428 33.2104 117.787 33.1248 118.193 33.1248C118.589 33.1248 118.941 33.2079 119.249 33.3741C119.557 33.5403 119.797 33.7774 119.968 34.0854C120.144 34.3934 120.232 34.7527 120.232 35.1633ZM118.948 34.8334C118.948 34.6183 118.875 34.4472 118.728 34.3201C118.582 34.193 118.398 34.1294 118.178 34.1294C117.968 34.1294 117.79 34.1905 117.643 34.3127C117.501 34.435 117.413 34.6085 117.379 34.8334H118.948Z" fill="white"/>
<path d="M122.074 33.8654C122.22 33.6406 122.404 33.4646 122.624 33.3375C122.844 33.2055 123.088 33.1395 123.357 33.1395V34.4667H123.012C122.699 34.4667 122.465 34.5352 122.308 34.672C122.152 34.804 122.074 35.0387 122.074 35.376V37.2752H120.82V33.1835H122.074V33.8654Z" fill="white"/>
<path d="M32.6051 20.7514C34.4084 20.7514 35.8437 21.3764 36.9109 22.6264C37.9966 23.8569 38.5394 25.5562 38.5394 27.7242V37.2753H33.8472V28.3981C33.8472 27.3043 33.5804 26.4547 33.0467 25.8492C32.5131 25.2437 31.7955 24.941 30.8938 24.941C29.9922 24.941 29.2745 25.2437 28.7409 25.8492C28.2073 26.4547 27.9404 27.3043 27.9404 28.3981V37.2753H23.2206V20.9272H27.9404V23.0952C28.4189 22.3725 29.0629 21.8061 29.8725 21.3959C30.6822 20.9662 31.593 20.7514 32.6051 20.7514Z" fill="white"/>
<path d="M55.59 29.277H50.7874V34.492H46.3159V29.277H41.5133V24.7945H46.3159V19.5502H50.7874V24.7945H55.59V29.277Z" fill="white"/>
<path d="M57.7386 20.5463V15.8879H65.3843V37.2753H60.4712V20.5463H57.7386Z" fill="white"/>
</svg>
