<svg width="366" height="472" viewBox="0 0 366 472" fill="none" xmlns="http://www.w3.org/2000/svg">
<path d="M367.463 391.11C376.726 358.966 375.3 326.544 368.544 294.151C368.038 291.727 366.122 288.784 368.167 287.041C369.197 286.163 372.619 287.766 374.94 288.321C383.317 290.323 391.113 293.76 398.999 296.975L398.999 279.426C388.521 275.476 378.256 270.934 367.059 269.046C362.398 268.26 360.683 265.857 359.141 261.86C346.569 229.245 327.604 200.713 298.668 178.881C269.796 157.096 236.238 149.732 200.059 149.528C165.612 149.333 131.063 152.278 96.7296 147.488C75.0234 144.46 54.7931 138.385 38.9236 122.643C13.9684 97.8885 14.3257 59.3332 40.571 36.8647C57.3206 22.5251 77.6472 18.4119 99.6054 20.3805C126.758 22.8144 147.978 36.6948 167.389 53.3006C200.794 81.8787 234.982 109.123 278.003 124.129C312.594 136.194 347.549 139.284 383.158 128.876C388.525 127.307 393.764 125.342 399 123.37L399 101.952C376.257 112.899 351.984 116.786 326.51 114.579C278.559 110.424 239.173 88.8245 203.721 59.4563C185.247 44.1527 167.419 28.1505 146.267 15.9901C103.665 -8.50202 58.6017 -4.76203 23.2932 26.5483C-0.277818 47.4508 -6.82537 81.5395 7.63893 108.888C27.2095 145.891 61.1285 161.649 102.405 166.119C132.15 169.341 161.997 167.365 191.809 167.161C214.804 167.004 237.886 167.713 259.499 175.991C300.46 191.679 323.48 223.087 339.092 260.566C341.27 265.796 337.27 263.657 335.026 263.527C266.163 259.541 211.299 284.11 172.412 338.157C143.745 377.998 155.886 429.257 198.132 455.135C261.98 494.246 346.967 462.226 367.463 391.11ZM206.643 441.264C177.614 423.067 167.853 387.895 183.795 356.26C203.91 316.343 239.049 294.324 282.998 283.65C301.979 279.04 321.353 279.66 340.71 281.001C344.737 281.279 346.824 282.682 347.826 286.861C352.305 305.546 354.44 324.439 354.68 345.773C354.382 369.346 350.364 394.165 335.237 416.429C318.184 441.528 292.988 452.56 262.723 454.316C242.784 455.474 223.646 451.923 206.643 441.264Z" fill="#82FF9E"/>
</svg>
